<svg width="37" height="18" viewBox="0 0 37 18" fill="none" xmlns="http://www.w3.org/2000/svg">
<path d="M3.33249 17V2.49333L4.91916 4.08H0.159155V1.13333H7.00449V17H3.33249ZM16.3341 17.272C15.0043 17.272 13.8408 17.0756 12.8435 16.6827C11.8461 16.2747 11.0679 15.708 10.5088 14.9827C9.94968 14.2422 9.67012 13.3809 9.67012 12.3987C9.67012 11.4164 9.94212 10.5853 10.4861 9.90533C11.0452 9.21022 11.8235 8.68889 12.8208 8.34133C13.8181 7.97867 14.9892 7.79733 16.3341 7.79733C17.6941 7.79733 18.8728 7.97867 19.8701 8.34133C20.8826 8.68889 21.6608 9.21022 22.2048 9.90533C22.7639 10.5853 23.0435 11.4164 23.0435 12.3987C23.0435 13.3809 22.7639 14.2422 22.2048 14.9827C21.6457 15.708 20.8599 16.2747 19.8475 16.6827C18.8501 17.0756 17.679 17.272 16.3341 17.272ZM16.3341 14.5747C17.2559 14.5747 17.9812 14.3707 18.5101 13.9627C19.0541 13.5547 19.3261 12.9956 19.3261 12.2853C19.3261 11.5751 19.0541 11.0236 18.5101 10.6307C17.9812 10.2227 17.2559 10.0187 16.3341 10.0187C15.4275 10.0187 14.7097 10.2227 14.1808 10.6307C13.6519 11.0236 13.3875 11.5751 13.3875 12.2853C13.3875 12.9956 13.6519 13.5547 14.1808 13.9627C14.7097 14.3707 15.4275 14.5747 16.3341 14.5747ZM16.3341 9.656C15.1101 9.656 14.0372 9.48978 13.1155 9.15733C12.2088 8.82489 11.4986 8.34133 10.9848 7.70667C10.4861 7.05689 10.2368 6.28622 10.2368 5.39467C10.2368 4.45778 10.4937 3.65689 11.0075 2.992C11.5212 2.312 12.239 1.79066 13.1608 1.428C14.0826 1.05022 15.1403 0.861332 16.3341 0.861332C17.5581 0.861332 18.6235 1.05022 19.5301 1.428C20.4519 1.79066 21.1697 2.312 21.6835 2.992C22.2123 3.65689 22.4768 4.45778 22.4768 5.39467C22.4768 6.28622 22.2199 7.05689 21.7061 7.70667C21.2075 8.34133 20.4972 8.82489 19.5755 9.15733C18.6537 9.48978 17.5732 9.656 16.3341 9.656ZM16.3341 7.50267C17.1048 7.50267 17.7092 7.32889 18.1475 6.98133C18.6008 6.63378 18.8275 6.15778 18.8275 5.55333C18.8275 4.91867 18.5932 4.42755 18.1248 4.08C17.6715 3.73244 17.0746 3.55866 16.3341 3.55866C15.6088 3.55866 15.0195 3.73244 14.5661 4.08C14.1128 4.42755 13.8861 4.91867 13.8861 5.55333C13.8861 6.15778 14.1052 6.63378 14.5435 6.98133C14.9817 7.32889 15.5786 7.50267 16.3341 7.50267ZM29.167 14.3027V3.83067H32.091V14.3027H29.167ZM25.2457 10.4493V7.684H36.035V10.4493H25.2457Z" fill="#017FDA"/>
</svg>
