<svg width="40" height="40" viewBox="0 0 40 40" fill="none" xmlns="http://www.w3.org/2000/svg">
<path opacity="0.4" fill-rule="evenodd" clip-rule="evenodd" d="M14.9111 8.46918H25.1489V6.08548H14.9111V8.46918ZM12.5828 6.1834V6.19527C11.7836 6.26795 10.993 6.42667 10.2238 6.66548V6.65658C10.201 6.6662 10.1794 6.6736 10.1588 6.6807C10.1316 6.69003 10.106 6.69883 10.0809 6.71147C10.0194 6.7263 9.95933 6.74855 9.90214 6.77673C9.73344 6.83162 9.56474 6.89688 9.40605 6.96363C9.36388 6.97995 9.3217 6.99886 9.27953 7.01777L9.27952 7.01778C9.23735 7.03669 9.19517 7.0556 9.153 7.07191C9.0951 7.09935 9.0347 7.12939 8.97429 7.15943C8.91389 7.18947 8.85349 7.2195 8.79559 7.24695L8.50966 7.41159C8.45679 7.43856 8.40785 7.47018 8.35792 7.50245C8.32818 7.52166 8.2981 7.5411 8.26661 7.55993C7.83629 7.83731 7.43741 8.16215 7.07714 8.5315L7.05569 8.55375C7.00837 8.60891 6.96125 8.66243 6.91477 8.71523C6.83626 8.8044 6.75958 8.8915 6.68684 8.98095L6.6654 9.00171C5.49593 10.6156 4.90977 12.6047 5.01128 14.6205V15.2598H7.32018V14.6146C7.32018 11.8052 8.21515 10.0564 10.2067 9.16043C10.9672 8.83855 11.7707 8.63978 12.5885 8.5671H12.6099V6.19379L12.5828 6.1834ZM33.3292 8.97204L33.3393 8.99281C34.5073 10.6081 35.0906 12.5988 34.9877 14.6146V15.2598H32.6802V14.5983C32.7288 13.4087 32.49 12.225 31.9839 11.1555C31.4979 10.2403 30.7201 9.52977 29.7808 9.1441C29.0331 8.82222 28.2411 8.62198 27.4333 8.55078V6.18933C28.2325 6.2635 29.0231 6.42073 29.7937 6.65954V6.64768C29.837 6.66732 29.87 6.679 29.9267 6.69905L29.9367 6.70256C29.963 6.71186 29.9875 6.72117 30.0118 6.73037C30.0456 6.74316 30.0788 6.75574 30.1154 6.76782C30.2734 6.81968 30.4213 6.88081 30.5734 6.9437L30.6 6.95472C30.6702 6.97937 30.7363 7.00995 30.7959 7.0375C30.8152 7.04642 30.8338 7.05502 30.8516 7.063C30.9775 7.11789 31.1061 7.18315 31.2091 7.23804C31.2777 7.27366 31.3446 7.31179 31.4073 7.34754C31.4412 7.36687 31.4739 7.38551 31.505 7.40269C31.5562 7.43097 31.6008 7.46124 31.6436 7.49034C31.6749 7.5116 31.7052 7.53223 31.7366 7.55102C32.1684 7.82988 32.5715 8.15621 32.9361 8.52259L32.949 8.54484C33.0833 8.67982 33.2106 8.82222 33.3292 8.97204Z" fill="#017FDA"/>
<path d="M27.4997 4.52816V9.78072C27.4997 10.4425 26.9627 10.9786 26.2997 10.9786C25.6367 10.9786 25.0997 10.4425 25.0997 9.78072V4.54014C25.0937 3.87833 25.6277 3.3378 26.2907 3.33331C26.9537 3.32882 27.4952 3.86036 27.4997 4.52217V4.52816Z" fill="#017FDA"/>
<path d="M14.9 4.54717V9.78674C14.9 10.4514 14.3624 10.9903 13.6993 10.9903C13.0362 10.9903 12.5 10.4514 12.5 9.78674V4.54717C12.5 3.88249 13.0362 3.34506 13.6993 3.34506C14.3624 3.34506 14.9 3.88249 14.9 4.54717Z" fill="#017FDA"/>
<path fill-rule="evenodd" clip-rule="evenodd" d="M5 28.1835V15.2598H35V28.1835C35 33.8192 31.8526 36.6665 25.6152 36.6665H14.3705C8.14735 36.6665 5 33.8192 5 28.1835ZM11.7668 22.4445C11.7668 23.2264 12.382 23.8608 13.1402 23.8608C13.9127 23.8608 14.5279 23.2117 14.5136 22.4298C14.5136 21.6478 13.8984 21.0135 13.1545 21.0135H13.1402C12.382 21.0135 11.7668 21.6626 11.7668 22.4445ZM18.6201 22.4446C18.6201 23.2265 19.2496 23.8609 20.0078 23.8609C20.766 23.8609 21.3812 23.2265 21.3812 22.4298C21.3812 21.6627 20.766 21.0283 20.0078 21.0135H19.9935C19.2353 21.0283 18.6201 21.6627 18.6201 22.4446ZM26.8607 23.8609C26.1025 23.8609 25.4873 23.2265 25.4873 22.4446C25.4873 21.6627 26.0882 21.0283 26.8607 21.0283C27.6189 21.0283 28.2341 21.6627 28.2341 22.4446C28.2341 23.2265 27.6189 23.8609 26.8607 23.8609ZM26.8603 29.9097C26.1021 29.9097 25.487 29.2753 25.4727 28.4934C25.4727 27.7115 26.0878 27.0771 26.846 27.0771H26.8603C27.6186 27.0771 28.2337 27.7115 28.2337 28.4934C28.2337 29.2753 27.6186 29.9097 26.8603 29.9097ZM20.0078 29.9096C19.2496 29.9096 18.6201 29.2753 18.6201 28.4933C18.6201 27.7114 19.2353 27.077 19.9935 27.0623H20.0078C20.766 27.077 21.3669 27.7114 21.3812 28.4786C21.3812 29.2753 20.766 29.9096 20.0078 29.9096ZM13.1404 29.9097C12.3821 29.9097 11.767 29.2753 11.767 28.4934C11.7527 27.7114 12.3678 27.0623 13.1404 27.0623C13.8986 27.0623 14.5138 27.6967 14.5138 28.4786C14.5138 29.2605 13.8986 29.9097 13.1404 29.9097Z" fill="#017FDA"/>
</svg>
