<svg width="20" height="20" viewBox="0 0 20 20" fill="none" xmlns="http://www.w3.org/2000/svg">
<circle cx="10" cy="10" r="10" fill="#27AE60"/>
<path fill-rule="evenodd" clip-rule="evenodd" d="M14.781 5.61999C14.9214 5.76062 15.0003 5.95124 15.0003 6.14999C15.0003 6.34874 14.9214 6.53936 14.781 6.67999L8.68398 12.777C8.6136 12.8473 8.52993 12.9029 8.43784 12.9406C8.34575 12.9782 8.24709 12.9972 8.1476 12.9964C8.04811 12.9955 7.94978 12.9749 7.85834 12.9357C7.7669 12.8965 7.68418 12.8395 7.61498 12.768L5.21198 10.284C5.13998 10.214 5.08277 10.1302 5.04375 10.0376C5.00474 9.94507 4.98471 9.84562 4.98486 9.74518C4.98502 9.64473 5.00534 9.54534 5.04464 9.45291C5.08393 9.36047 5.14139 9.27686 5.21361 9.20706C5.28583 9.13725 5.37134 9.08266 5.46506 9.04652C5.55878 9.01039 5.6588 8.99345 5.75919 8.99671C5.85958 8.99997 5.9583 9.02336 6.04948 9.06549C6.14066 9.10763 6.22244 9.16765 6.28998 9.24199L8.16298 11.177L13.721 5.61999C13.8616 5.47954 14.0522 5.40065 14.251 5.40065C14.4497 5.40065 14.6404 5.47954 14.781 5.61999Z" fill="#FAFAFA"/>
</svg>
