<svg width="22" height="32" viewBox="0 0 22 32" fill="none" xmlns="http://www.w3.org/2000/svg">
<path fill-rule="evenodd" clip-rule="evenodd" d="M5.58066 1.83871C8.9945 -0.144884 13.1907 -0.110214 16.5725 1.92952C19.921 4.0108 21.9562 7.72528 21.9372 11.721C21.8593 15.6905 19.677 19.4219 16.9492 22.3064C15.3747 23.9788 13.6135 25.4575 11.7013 26.7126C11.5044 26.8264 11.2887 26.9027 11.0648 26.9375C10.8494 26.9283 10.6396 26.8647 10.4543 26.7523C7.53504 24.8665 4.97396 22.4594 2.89427 19.6468C1.15404 17.299 0.165368 14.4625 0.0625018 11.5225C0.0602427 7.51913 2.16682 3.82229 5.58066 1.83871ZM7.55314 13.1793C8.12739 14.595 9.48286 15.5184 10.9866 15.5184C11.9718 15.5255 12.9188 15.1309 13.6167 14.4225C14.3145 13.7142 14.7052 12.7509 14.7017 11.7474C14.707 10.2156 13.8052 8.83166 12.4174 8.24175C11.0296 7.65184 9.42952 7.97234 8.36432 9.05358C7.29912 10.1348 6.97889 11.7635 7.55314 13.1793Z" fill="#017FDA"/>
<path opacity="0.4" d="M11 31.625C15.3147 31.625 18.8125 30.9254 18.8125 30.0625C18.8125 29.1996 15.3147 28.5 11 28.5C6.68528 28.5 3.1875 29.1996 3.1875 30.0625C3.1875 30.9254 6.68528 31.625 11 31.625Z" fill="#017FDA"/>
</svg>
