<svg width="40" height="40" viewBox="0 0 40 40" fill="none" xmlns="http://www.w3.org/2000/svg">
<path d="M8.57192 4.00009C6.05049 4.00009 4.00049 6.05009 4.00049 8.57152V31.4287C4.00049 33.9501 6.05049 36.0001 8.57192 36.0001H31.4291C33.9505 36.0001 36.0005 33.9501 36.0005 31.4287V8.57152C36.0005 6.05009 33.9505 4.00009 31.4291 4.00009H8.57192ZM17.7148 20.0001H21.1433C22.4076 20.0001 23.4291 18.9787 23.4291 17.7144C23.4291 16.4501 22.4076 15.4287 21.1433 15.4287H17.7148V20.0001ZM21.1433 24.5715H17.7148V26.8572C17.7148 28.1215 16.6933 29.143 15.4291 29.143C14.1648 29.143 13.1433 28.1215 13.1433 26.8572V13.7144C13.1433 12.1358 14.4219 10.8572 16.0005 10.8572H21.1433C24.9291 10.8572 28.0005 13.9287 28.0005 17.7144C28.0005 21.5001 24.9291 24.5715 21.1433 24.5715Z" fill="#017FDA"/>
</svg>
