<svg width="40" height="40" viewBox="0 0 40 40" fill="none" xmlns="http://www.w3.org/2000/svg">
<path d="M19.9146 24.2332C14.1646 24.2332 9.31299 25.1728 9.31299 28.799C9.31299 32.4268 14.1959 33.3333 19.9146 33.3333C25.6645 33.3333 30.5161 32.3938 30.5161 28.7675C30.5161 25.1398 25.6332 24.2332 19.9146 24.2332" fill="#017FDA"/>
<path opacity="0.4" d="M19.9149 20.7784C23.8084 20.7784 26.9304 17.6384 26.9304 13.7225C26.9304 9.80511 23.8084 6.66667 19.9149 6.66667C16.0214 6.66667 12.8994 9.80511 12.8994 13.7225C12.8994 17.6384 16.0214 20.7784 19.9149 20.7784" fill="#017FDA"/>
<path opacity="0.4" d="M35.1466 15.3654C36.1539 11.403 33.2006 7.84428 29.4399 7.84428C29.031 7.84428 28.64 7.88931 28.258 7.96586C28.2072 7.97787 28.1505 8.00338 28.1207 8.04841C28.0864 8.10545 28.1117 8.18199 28.149 8.23152C29.2787 9.82551 29.9279 11.7662 29.9279 13.8495C29.9279 15.8457 29.3325 17.7069 28.2878 19.2513C28.1804 19.4104 28.2759 19.6251 28.4654 19.6581C28.7281 19.7046 28.9967 19.7286 29.2713 19.7361C32.0097 19.8082 34.4676 18.0356 35.1466 15.3654" fill="#017FDA"/>
<path d="M38.0157 24.6949C37.5143 23.6202 36.304 22.8833 34.4639 22.5216C33.5954 22.3084 31.2449 22.0082 29.0587 22.0488C29.0258 22.0533 29.0079 22.0758 29.0049 22.0908C29.0005 22.1118 29.0094 22.1478 29.0527 22.1703C30.063 22.6732 33.9685 24.86 33.4775 29.4724C33.4566 29.672 33.6163 29.8446 33.8147 29.8146C34.7758 29.6765 37.2486 29.1422 38.0157 27.4776C38.4395 26.5981 38.4395 25.5759 38.0157 24.6949" fill="#017FDA"/>
<path opacity="0.4" d="M11.7411 7.96632C11.3606 7.88827 10.9681 7.84474 10.5592 7.84474C6.79852 7.84474 3.84518 11.4034 4.854 15.3659C5.53152 18.036 7.9894 19.8086 10.7278 19.7366C11.0024 19.7291 11.2725 19.7036 11.5337 19.6585C11.7232 19.6255 11.8187 19.4109 11.7113 19.2518C10.6667 17.7058 10.0712 15.8462 10.0712 13.85C10.0712 11.7652 10.7219 9.82446 11.8516 8.23198C11.8874 8.18245 11.9143 8.1059 11.8784 8.04887C11.8486 8.00234 11.7934 7.97832 11.7411 7.96632" fill="#017FDA"/>
<path d="M5.53576 22.5211C3.69571 22.8828 2.48692 23.6198 1.98549 24.6945C1.56017 25.5755 1.56017 26.5976 1.98549 27.4787C2.75255 29.1417 5.22536 29.6775 6.18642 29.8141C6.3849 29.8441 6.54309 29.673 6.5222 29.4719C6.03122 24.8611 9.93667 22.6742 10.9485 22.1714C10.9903 22.1474 10.9992 22.1129 10.9947 22.0904C10.9918 22.0753 10.9753 22.0528 10.9425 22.0498C8.75474 22.0078 6.4058 22.308 5.53576 22.5211" fill="#017FDA"/>
</svg>
