<svg width="40" height="40" viewBox="0 0 40 40" fill="none" xmlns="http://www.w3.org/2000/svg">
<path opacity="0.4" d="M27.5005 17.4998C27.5005 19.2303 26.9873 20.9221 26.0259 22.361C25.0644 23.7999 23.6978 24.9214 22.099 25.5837C20.5001 26.246 18.7408 26.4193 17.0435 26.0816C15.3461 25.744 13.787 24.9107 12.5633 23.6869C11.3396 22.4632 10.5062 20.9041 10.1686 19.2068C9.831 17.5095 10.0043 15.7501 10.6665 14.1513C11.3288 12.5524 12.4503 11.1859 13.8893 10.2244C15.3282 9.26293 17.0199 8.74976 18.7505 8.74976C21.0711 8.74976 23.2967 9.67163 24.9377 11.3126C26.5786 12.9535 27.5005 15.1791 27.5005 17.4998Z" fill="#017FDA"/>
<path d="M32.5009 3.74976H26.2509C25.9194 3.74976 25.6014 3.88145 25.367 4.11587C25.1326 4.35029 25.0009 4.66824 25.0009 4.99976C25.0009 5.33128 25.1326 5.64922 25.367 5.88364C25.6014 6.11806 25.9194 6.24976 26.2509 6.24976H29.4837L25.554 10.1794C24.4002 9.10412 23.0083 8.31698 21.4921 7.88232C19.9759 7.44767 18.3784 7.37782 16.8301 7.67849C15.2817 7.97915 13.8265 8.6418 12.5832 9.61232C11.3398 10.5828 10.3437 11.8337 9.67616 13.2627C9.0086 14.6917 8.68853 16.2584 8.7421 17.8347C8.79567 19.4111 9.22135 20.9524 9.98439 22.3328C10.7474 23.7132 11.8262 24.8936 13.1325 25.7774C14.4388 26.6613 15.9357 27.2236 17.5009 27.4185V29.9998H13.7509C13.4194 29.9998 13.1014 30.1315 12.867 30.3659C12.6326 30.6003 12.5009 30.9182 12.5009 31.2498C12.5009 31.5813 12.6326 31.8992 12.867 32.1336C13.1014 32.3681 13.4194 32.4998 13.7509 32.4998H17.5009V36.2498C17.5009 36.5813 17.6326 36.8992 17.867 37.1336C18.1014 37.3681 18.4194 37.4998 18.7509 37.4998C19.0824 37.4998 19.4004 37.3681 19.6348 37.1336C19.8692 36.8992 20.0009 36.5813 20.0009 36.2498V32.4998H23.7509C24.0824 32.4998 24.4004 32.3681 24.6348 32.1336C24.8692 31.8992 25.0009 31.5813 25.0009 31.2498C25.0009 30.9182 24.8692 30.6003 24.6348 30.3659C24.4004 30.1315 24.0824 29.9998 23.7509 29.9998H20.0009V27.4185C21.6764 27.2092 23.2715 26.5785 24.6371 25.5854C26.0027 24.5923 27.0942 23.2692 27.8096 21.7397C28.5251 20.2102 28.841 18.5243 28.728 16.8396C28.615 15.1548 28.0767 13.5262 27.1634 12.106L31.2509 8.01694V11.2498C31.2509 11.5813 31.3826 11.8992 31.617 12.1336C31.8514 12.3681 32.1694 12.4998 32.5009 12.4998C32.8324 12.4998 33.1504 12.3681 33.3848 12.1336C33.6192 11.8992 33.7509 11.5813 33.7509 11.2498V4.99976C33.7509 4.66824 33.6192 4.35029 33.3848 4.11587C33.1504 3.88145 32.8324 3.74976 32.5009 3.74976ZM18.7509 24.9998C17.2675 24.9998 15.8175 24.5599 14.5841 23.7358C13.3508 22.9117 12.3895 21.7403 11.8218 20.3699C11.2541 18.9994 11.1056 17.4914 11.395 16.0366C11.6844 14.5817 12.3987 13.2453 13.4476 12.1965C14.4965 11.1476 15.8329 10.4333 17.2877 10.1439C18.7426 9.85448 20.2506 10.003 21.621 10.5707C22.9915 11.1383 24.1628 12.0996 24.9869 13.333C25.811 14.5663 26.2509 16.0164 26.2509 17.4998C26.2488 19.4882 25.458 21.3947 24.0519 22.8008C22.6458 24.2068 20.7394 24.9977 18.7509 24.9998Z" fill="#017FDA"/>
</svg>
