<svg width="20" height="20" viewBox="0 0 20 20" fill="none" xmlns="http://www.w3.org/2000/svg">
<circle cx="10" cy="10" r="10" fill="#E0E0E0"/>
<path d="M10.0002 5.33333C9.22661 5.33333 8.48475 5.64062 7.93777 6.1876C7.39079 6.73458 7.0835 7.47645 7.0835 8.25C7.0835 8.4047 7.14495 8.55308 7.25435 8.66247C7.36375 8.77187 7.51212 8.83333 7.66683 8.83333C7.82154 8.83333 7.96991 8.77187 8.07931 8.66247C8.1887 8.55308 8.25016 8.4047 8.25016 8.25C8.25016 7.28283 9.033 6.49999 10.0002 6.49999C10.9673 6.49999 11.7502 7.28283 11.7502 8.25C11.7502 8.726 11.6341 9.00483 11.4947 9.20025C11.3418 9.41316 11.1301 9.57241 10.8367 9.77483L10.769 9.82033C10.5082 9.99883 10.1722 10.2281 9.91208 10.5477C9.60466 10.9257 9.41683 11.4035 9.41683 12.0417V12.3333C9.41683 12.488 9.47829 12.6364 9.58768 12.7458C9.69708 12.8552 9.84545 12.9167 10.0002 12.9167C10.1549 12.9167 10.3032 12.8552 10.4126 12.7458C10.522 12.6364 10.5835 12.488 10.5835 12.3333V12.0417C10.5835 11.659 10.6873 11.4443 10.8168 11.2839C10.9667 11.1007 11.1686 10.9619 11.4667 10.7572L11.4976 10.7356C11.7869 10.5372 12.1585 10.2771 12.4426 9.87925C12.7418 9.46391 12.9168 8.94008 12.9168 8.25C12.9168 7.47645 12.6095 6.73458 12.0626 6.1876C11.5156 5.64062 10.7737 5.33333 10.0002 5.33333ZM10.0002 15.3958C10.1935 15.3958 10.379 15.319 10.5158 15.1823C10.6525 15.0455 10.7293 14.86 10.7293 14.6667C10.7293 14.4733 10.6525 14.2878 10.5158 14.1511C10.379 14.0143 10.1935 13.9375 10.0002 13.9375C9.80678 13.9375 9.62131 14.0143 9.48456 14.1511C9.34782 14.2878 9.271 14.4733 9.271 14.6667C9.271 14.86 9.34782 15.0455 9.48456 15.1823C9.62131 15.319 9.80678 15.3958 10.0002 15.3958Z" fill="#8E8E93"/>
</svg>
